<?xml version="1.0" encoding="UTF-8"?>
<svg id="uuid-f1df1723-4431-48c3-93b9-1d6006931096" data-name="Layer 1" xmlns="http://www.w3.org/2000/svg" viewBox="0 0 220 75">
  <defs>
    <style>
      .uuid-dc9ad51f-0336-4017-b222-3efe0204d648 {
        fill: #0f73ea;
      }
    </style>
  </defs>
  <path class="uuid-dc9ad51f-0336-4017-b222-3efe0204d648" d="m66.51,41.3c-.05-2.72-.76-5.02-2.11-6.83h0c-1.38-1.85-3.53-2.78-6.39-2.78-3.59,0-6.84.91-9.65,2.7-2.79,1.78-5.17,4.04-7.07,6.72-1.9,2.67-3.34,5.61-4.26,8.74-.52,1.76-.86,3.49-1.02,5.14-1.58,1.96-3.16,3.67-4.68,5.08-1.9,1.76-3.77,3.11-5.55,4.01-1.76.89-3.41,1.35-4.91,1.35s-2.55-.72-3.16-2.2c-.65-1.56-.94-3.66-.87-6.25.07-2.62.47-5.65,1.2-9.02.73-3.36,1.65-6.85,2.75-10.35,1.1-3.5,2.35-6.99,3.72-10.35,1.37-3.37,2.79-6.41,4.23-9.05,1.43-2.63,2.84-4.76,4.17-6.34,1.28-1.52,2.41-2.29,3.35-2.29.41,0,.56.72.61,1.33.09,1.07-.01,2.47-.31,4.16-.3,1.71-.78,3.66-1.44,5.82-.66,2.15-1.47,4.35-2.4,6.54-.94,2.19-2,4.28-3.15,6.22-1.15,1.94-2.38,3.6-3.65,4.95l-.41.43.57.15c2.98.8,5.72.55,8.16-.74,2.41-1.27,4.47-3.13,6.13-5.53,1.65-2.38,2.91-5.09,3.74-8.07.83-2.97,1.16-5.81.98-8.44-.19-2.65-.94-4.92-2.24-6.76-1.33-1.88-3.32-2.83-5.92-2.83-3.05,0-6,.89-8.78,2.65-2.76,1.74-5.34,4.07-7.68,6.92-2.33,2.84-4.43,6.13-6.26,9.77-1.82,3.64-3.29,7.41-4.37,11.2-1.08,3.8-1.79,7.57-2.08,11.21-.3,3.66-.09,6.97.63,9.82.73,2.89,2.04,5.25,3.9,7.02,1.88,1.79,4.46,2.69,7.67,2.69,1.56,0,3.31-.42,5.21-1.24,1.89-.82,3.88-2.15,5.93-3.95,1.59-1.4,3.2-3.16,4.81-5.22.01.31.03.62.06.92.24,2.72,1.1,5.01,2.56,6.81,1.49,1.84,3.7,2.77,6.56,2.77,3.1,0,6.01-.91,8.66-2.7,2.62-1.77,4.92-4.03,6.82-6.71,1.9-2.67,3.39-5.61,4.43-8.73,1.04-3.12,1.55-6.07,1.5-8.75Zm-18.46,22.31c-1.28,1.87-2.09,2.26-2.54,2.26-.11,0-.2-.03-.27-.11-.15-.15-.39-.6-.37-1.94.02-1.58.3-3.58.82-5.97.52-2.39,1.26-5.01,2.2-7.79.94-2.78,1.98-5.4,3.09-7.79,1.11-2.39,2.27-4.4,3.45-5.98,1.12-1.51,2.19-2.27,3.17-2.27.11,0,.19.03.26.11.14.15.36.6.29,1.93-.09,1.58-.45,3.59-1.06,5.97-.62,2.39-1.45,5.02-2.47,7.79-1.03,2.77-2.11,5.4-3.23,7.8-1.12,2.39-2.23,4.41-3.32,5.99Z"/>
  <path class="uuid-dc9ad51f-0336-4017-b222-3efe0204d648" d="m156.16,25.74l6.01-1.36c1.45-.33,2.69-.68,3.7-1.04,1.02-.37,1.89-.82,2.58-1.35.7-.53,1.35-1.29,1.92-2.25.56-.93,1.13-2.12,1.71-3.54.58-1.41,1.29-3.21,2.11-5.33l.22-.57-.61.09c-1.92.3-3.57.52-4.92.67-1.37.15-2.57.38-3.55.68-1.01.31-1.88.75-2.6,1.31-.72.56-1.41,1.34-2.05,2.32-.63.97-1.28,2.27-1.93,3.86-.65,1.58-1.43,3.54-2.35,5.86l-.25.62Z"/>
  <path class="uuid-dc9ad51f-0336-4017-b222-3efe0204d648" d="m183.84,47.29h0c-.12-4.46-1.23-9.63-3.3-15.37l-.1-.29-10,2.11.12.37c1.37,4.43,2.31,8.36,2.82,11.67.19,1.24.34,2.41.45,3.52l-.84-.4c-2.19-1.05-4.19-1.3-5.92-.73-1.4.46-2.64,1.24-3.68,2.32l.19.19-.21-.17-.11.12c-.16.17-.32.33-.47.52-.83,1.06-1.49,2.29-1.96,3.65-.49.76-1,1.54-1.42,2.3-.91,1.65-1.9,3.17-2.94,4.52-1.23,1.59-2.03,1.92-2.48,1.92-.25,0-.36-.09-.41-.35-.05-.25-.05-.8.27-2.03.27-1.03.72-2.44,1.34-4.18.62-1.77,1.47-4.01,2.51-6.65,1.06-2.69,2.01-5.13,2.87-7.34.85-2.21,1.58-4.12,2.18-5.73.69-1.91,1.31-3.61,1.86-5.1l.22-.58-11.71,2.11-.07.18c-.64,1.61-1.3,3.33-1.93,5.1-.6,1.55-1.24,3.27-1.93,5.15-.69,1.87-1.41,3.78-2.14,5.68l-.19.51h0c-1.17,2.49-2.56,4.97-3.58,6.78-.91,1.65-1.9,3.17-2.94,4.52-1.22,1.59-2.02,1.92-2.48,1.92-.25,0-.36-.09-.41-.35-.05-.25-.05-.8.27-2.02.27-1.03.72-2.44,1.34-4.18.63-1.77,1.47-4.01,2.52-6.66.51-1.31,1.13-2.94,1.86-4.88.73-1.94,1.54-4.02,2.41-6.26.87-2.24,1.77-4.57,2.69-6.98.92-2.42,1.82-4.79,2.69-7.11,2.07-5.49,4.26-11.24,6.56-17.27l.22-.59-11.72,2.12-.07.19c-2.38,6.11-4.61,11.92-6.63,17.27-.87,2.27-1.75,4.57-2.62,6.89-.87,2.33-1.7,4.52-2.48,6.58-.78,2.06-1.5,3.92-2.14,5.59-.64,1.67-1.13,3-1.45,3.94l-.26.69h0c-1.14,2.42-2.28,4.64-3.37,6.6-.91,1.65-1.9,3.17-2.94,4.52-1.23,1.59-2.03,1.92-2.48,1.92-.25,0-.36-.09-.41-.35-.05-.25-.05-.8.27-2.03.28-1.04.73-2.45,1.34-4.18.63-1.77,1.47-4.01,2.51-6.65,1.06-2.69,2-5.16,2.8-7.35.8-2.19,1.53-4.11,2.17-5.73.68-1.89,1.33-3.6,1.93-5.09l.24-.6-10.71,1.93c-.22-.19-.45-.37-.7-.55-1.16-.85-2.6-1.28-4.28-1.28-2.96,0-5.72.91-8.22,2.71-2.46,1.78-4.61,4.04-6.37,6.71-1.76,2.67-3.15,5.59-4.15,8.68-.45,1.4-.81,2.79-1.07,4.14-.58,1.13-1.15,2.2-1.7,3.18-.91,1.65-1.9,3.17-2.94,4.52-1.23,1.59-2.03,1.92-2.48,1.92-.25,0-.36-.09-.41-.35-.05-.25-.05-.8.27-2.02.28-1.04.74-2.44,1.37-4.17.65-1.78,1.51-4.02,2.55-6.66.51-1.31,1.13-2.94,1.86-4.88l5.04-13.24c.92-2.42,1.82-4.79,2.69-7.11,2.07-5.49,4.26-11.24,6.56-17.27l.23-.59-11.65,2.12-.07.18c-2.39,6.13-4.62,11.94-6.63,17.27l-2.38,6.16s0,0-.01-.01c-1.14-.85-2.57-1.28-4.25-1.28-2.96,0-5.72.91-8.22,2.71-2.46,1.78-4.61,4.04-6.37,6.71-1.76,2.67-3.14,5.59-4.11,8.68-.97,3.09-1.49,6.02-1.53,8.69-.05,2.71.46,5,1.5,6.8,1.07,1.87,2.83,2.82,5.21,2.82,1.55,0,2.99-.52,4.29-1.55,1.27-1,2.44-2.33,3.49-3.93,0,0,.01-.02.02-.03-.03,1.42.26,2.64.87,3.64.76,1.24,2.3,1.87,4.58,1.87,1.2,0,2.35-.25,3.43-.75,1.06-.49,2.07-1.16,2.99-1.98.91-.82,1.75-1.75,2.5-2.78.74-1.02,1.42-2.08,2.03-3.17.27-.49.54-1,.8-1.55,0,.21-.02.41-.02.62-.05,2.71.46,5,1.5,6.8,1.07,1.87,2.83,2.82,5.21,2.82,1.55,0,2.99-.52,4.29-1.55,1.27-1,2.44-2.33,3.49-3.93,0,0,.01-.02.02-.03-.03,1.42.26,2.64.87,3.64.76,1.24,2.3,1.87,4.58,1.87,1.2,0,2.35-.25,3.43-.75,1.06-.49,2.07-1.16,2.99-1.98.91-.82,1.75-1.75,2.5-2.78.74-1.02,1.42-2.08,2.02-3.17.03-.06.07-.12.1-.18-.2.87-.34,1.69-.42,2.47-.19,1.8.08,3.32.81,4.52.76,1.24,2.3,1.87,4.58,1.87,1.2,0,2.35-.25,3.43-.75,1.06-.49,2.07-1.16,2.99-1.98.91-.82,1.75-1.76,2.5-2.78.74-1.02,1.42-2.09,2.02-3.17.12-.21.24-.42.36-.64-.25,1.03-.41,2.01-.5,2.93-.17,1.8.12,3.32.84,4.51.76,1.24,2.3,1.87,4.58,1.87,1.2,0,2.35-.25,3.43-.75,1.06-.49,2.07-1.15,2.99-1.98.91-.82,1.75-1.75,2.5-2.78.74-1.02,1.42-2.09,2.02-3.17.08-.15.17-.3.25-.45-.04.95.03,1.87.19,2.76.33,1.79,1.1,3.33,2.27,4.56,1.19,1.26,2.89,1.9,5.06,1.9,3.14,0,6.01-.82,8.54-2.43,2.53-1.61,4.51-4,5.86-7.09,1.35-3.08,1.97-6.9,1.86-11.38Zm-95.21-12.07c-.68,1.77-1.33,3.46-1.94,5.06-.78,2.06-1.48,3.92-2.11,5.59-.49,1.33-.91,2.42-1.24,3.29-.53,1.27-1.05,2.51-1.55,3.67-.6,1.36-1.21,2.7-1.82,3.97-.61,1.26-1.22,2.39-1.81,3.37-.58.96-1.14,1.76-1.66,2.37-.62.73-.96.81-1.07.81-.29,0-1.04,0-1.13-1.81-.07-1.39.17-3.16.71-5.26.55-2.13,1.32-4.47,2.3-6.94.98-2.48,2.1-4.81,3.32-6.93,1.22-2.12,2.51-3.9,3.82-5.3,1.26-1.35,2.45-2.03,3.54-2.03.21,0,.42.05.64.14Zm30.3,3.77c-.6,1.55-1.25,3.27-1.97,5.15-.34.89-.67,1.8-1,2.7l-.3.82c-.75,1.86-1.48,3.6-2.17,5.18-.6,1.36-1.21,2.7-1.82,3.97-.61,1.27-1.21,2.4-1.78,3.38-.56.96-1.11,1.76-1.62,2.37-.57.67-.94.81-1.14.81-.28,0-1.04,0-1.1-1.8-.05-1.39.19-3.17.71-5.27.52-2.12,1.29-4.45,2.3-6.93,1-2.48,2.13-4.81,3.36-6.93,1.23-2.12,2.51-3.9,3.82-5.3,1.26-1.35,2.45-2.03,3.54-2.03.21,0,.41.04.62.13-.46,1.21-.93,2.46-1.44,3.78Zm54.89,10.35c.18,1.84.26,3.49.24,4.94-.05,2.31-.32,4.25-.81,5.76-.49,1.51-1.06,2.69-1.67,3.52-.61.82-1.23,1.4-1.85,1.73-.61.33-1.1.49-1.45.49-.31,0-.7-.1-.86-.92-.15-.76-.14-1.74.04-2.92.18-1.2.49-2.52.92-3.93.43-1.41.92-2.75,1.47-3.99.54-1.23,1.11-2.27,1.69-3.12.68-.98,1.13-1.27,1.38-1.33l.91-.24Z"/>
  <path class="uuid-dc9ad51f-0336-4017-b222-3efe0204d648" d="m212.03,11.86l.33-.85-13.43,6.64-.05.13c-1.39,3.56-2.74,7.07-4.01,10.42h-3.42l-1.83,4.2h3.65c-.5,1.31-1.01,2.62-1.51,3.95-.69,1.82-1.36,3.56-2,5.23l-1.79,4.65c-.57,1.47-1,2.64-1.31,3.58-.74,1.91-1.48,3.95-2.21,6.05-.74,2.13-1.21,4.1-1.4,5.85-.19,1.8.08,3.32.81,4.52.76,1.24,2.3,1.87,4.58,1.87,1.2,0,2.35-.25,3.43-.75,1.06-.49,2.07-1.15,2.99-1.98.91-.82,1.75-1.75,2.5-2.78.74-1.02,1.42-2.09,2.02-3.16,1.43-2.52,2.67-5.43,3.69-8.66l-.66-.26c-1.14,2.43-2.28,4.65-3.37,6.6-.91,1.65-1.9,3.17-2.94,4.52-1.22,1.59-2.02,1.92-2.48,1.92-.25,0-.36-.09-.41-.35-.05-.25-.05-.8.27-2.02.27-1.03.72-2.44,1.34-4.18.63-1.77,1.47-4.01,2.52-6.66.51-1.31,1.1-2.88,1.8-4.7.69-1.82,1.44-3.76,2.24-5.81.8-2.06,1.62-4.18,2.45-6.36l.41-1.07h3.99l1.74-4.2h-4.15l.43-1.13c1.84-4.88,3.79-10,5.8-15.21Z"/>
</svg>